<svg width="130" height="130" viewBox="0 0 130 130" fill="none" xmlns="http://www.w3.org/2000/svg">
<path d="M107.553 123.633C111.855 127.936 118.743 128.068 123.209 124.037L123.633 123.634L123.634 123.633C128.074 119.192 128.074 111.994 123.63 107.553L104.279 88.1993L104.279 88.1984C91.4364 75.3567 91.4361 54.5375 104.279 41.6945L104.28 41.6945L123.629 22.3409C128.073 17.9017 128.074 10.7052 123.63 6.26478L123.631 6.2638C119.192 1.81847 111.994 1.81756 107.553 6.26185L88.1979 25.6124L88.1979 25.6134C75.3548 38.4563 54.5357 38.456 41.694 25.6134L41.693 25.6134L22.3405 6.26185C17.8996 1.81776 10.6999 1.81858 6.2594 6.25794L6.25842 6.25892C1.81913 10.7028 1.81914 17.8981 6.25842 22.3419L6.2594 22.3439L25.6119 41.6945L26.2047 42.3019C38.451 55.1858 38.253 75.5572 25.6119 88.1984L6.2594 107.552C1.81869 111.993 1.81869 119.192 6.2594 123.633C10.7001 128.074 17.8997 128.074 22.3405 123.633L41.694 104.28C54.5357 91.4388 75.3548 91.4385 88.1979 104.28L107.553 123.633Z" fill="#FFC700" stroke="black" stroke-width="5.85703"/>
</svg>
