<svg width="93" height="93" viewBox="0 0 93 93" fill="none" xmlns="http://www.w3.org/2000/svg">
<path d="M61.8062 3.94631C63.5114 1.1497 67.1281 0.154474 70.0412 1.7328L70.0421 1.73252C72.9532 3.31223 74.0907 6.88913 72.6744 9.84427L72.5293 10.1277L64.4793 24.9702C58.9188 35.2196 62.72 48.0345 72.9702 53.5949L87.8104 61.6475C90.818 63.2766 91.9326 67.0331 90.3005 70.0388C88.6712 73.0468 84.9142 74.1623 81.9083 72.5292L81.908 72.5282L67.0658 64.4792C56.8156 58.9188 44.0007 62.7201 38.4411 72.97L30.3887 87.8112C28.7589 90.8189 25.0005 91.9337 21.9952 90.304L21.9949 90.303C18.9892 88.6706 17.8753 84.9151 19.5047 81.9078L19.5044 81.9068L27.5568 67.0656C33.1163 56.8158 29.3148 44.0009 19.066 38.441L4.22292 30.3891C1.21736 28.7587 0.102528 25.0003 1.73294 21.9948C3.36334 18.9892 7.12173 17.8744 10.1273 19.5048L24.9703 27.5566C35.2194 33.1161 48.0345 29.3151 53.595 19.0658L61.6478 4.2225L61.8062 3.94631Z" fill="#FFC700" stroke="black" stroke-width="1.96471"/>
</svg>
